<?xml version="1.0" encoding="UTF-8" standalone="no"?>
<!-- Created with Inkscape (http://www.inkscape.org/) -->

<svg
   xmlns:dc="http://purl.org/dc/elements/1.1/"
   xmlns:cc="http://creativecommons.org/ns#"
   xmlns:rdf="http://www.w3.org/1999/02/22-rdf-syntax-ns#"
   xmlns:svg="http://www.w3.org/2000/svg"
   xmlns="http://www.w3.org/2000/svg"
   xmlns:sodipodi="http://sodipodi.sourceforge.net/DTD/sodipodi-0.dtd"
   xmlns:inkscape="http://www.inkscape.org/namespaces/inkscape"
   version="1.1"
   width="167.2415"
   height="124.35313"
   id="svg2"
   xml:space="preserve"
   sodipodi:docname="tub_logo.svg"
   inkscape:version="0.92.3 (2405546, 2018-03-11)"><sodipodi:namedview
     pagecolor="#ffffff"
     bordercolor="#666666"
     borderopacity="1"
     objecttolerance="10"
     gridtolerance="10"
     guidetolerance="10"
     inkscape:pageopacity="0"
     inkscape:pageshadow="2"
     inkscape:window-width="1920"
     inkscape:window-height="1137"
     id="namedview43"
     showgrid="false"
     inkscape:zoom="3.5518154"
     inkscape:cx="46.657256"
     inkscape:cy="79.575095"
     inkscape:window-x="-8"
     inkscape:window-y="-8"
     inkscape:window-maximized="1"
     inkscape:current-layer="svg2" /><metadata
     id="metadata8"><rdf:RDF><cc:Work
         rdf:about=""><dc:format>image/svg+xml</dc:format><dc:type
           rdf:resource="http://purl.org/dc/dcmitype/StillImage" /><dc:title></dc:title></cc:Work></rdf:RDF></metadata><defs
     id="defs6" /><path
     d="m 119.284,124.35313 c 9.98875,0 17.16625,-2.96525 22.74,-6.69913 5.1975,-3.483 9.22625,-7.604 12.31625,-12.92 3.995,-6.8715 5.225,-13.25825 5.5625,-16.962875 0.001,-0.03075 7.33875,-77.232375 7.33875,-77.232375 l -37.02875,-0.0025 c 0,0 -10.94,113.81687 -10.92875,113.81687"
     inkscape:connector-curvature="0"
     id="path14"
     style="fill:#1b3856;fill-opacity:1;fill-rule:nonzero;stroke:none;stroke-width:0.125" /><path
     d="M 84.25025,36.41125 79.2365,88.4865 c -0.9225,12.46187 3.75,18.86475 6.6575,22.23875 5.31125,6.16062 15.07625,11.00437 26.35375,13.02487 0.3125,-3.312 10.0275,-104.112745 10.0275,-104.13087 C 122.61275,14.445 121.10525,9.92 117.654,5.97625 113.62775,1.3775 107.67025,0 105.21025,0 l -88.537,0.01 C 10.013125,0.01 0,6.76875 0,17.916125 c 0,13.7745 12.23975,18.496125 16.45113,18.496125 2.14987,0 67.79912,-10e-4 67.79912,-10e-4"
     inkscape:connector-curvature="0"
     id="path16"
     style="fill:#1b3856;fill-opacity:1;fill-rule:nonzero;stroke:none;stroke-width:0.125" /><path
     d="m 32.69375,113.88688 32.97025,-0.002 6.74625,-70.06438 -32.97087,8.75e-4 c 0,0 -5.892,60.991245 -6.74563,70.064995 v 0"
     inkscape:connector-curvature="0"
     id="path18"
     style="fill:#1b3856;fill-opacity:1;fill-rule:nonzero;stroke:none;stroke-width:0.125" /><path
     d="m 143.13275,72.733125 c -0.20125,2.06925 2.075,3.1825 4.2275,3.185 l 3.94375,0.0034 c 0.23375,-0.56875 0.3725,-1.214375 0.45125,-2.0165 0.21,-2.19825 -0.97625,-3.69875 -4.40875,-3.70225 -2.56125,-0.0014 -4.04875,0.799375 -4.21375,2.530375 z M 153.9115,74.1125 c -0.17375,1.8105 -0.48375,3.181125 -0.98,4.577625 l -18.36625,-0.01563 0.26875,-2.767625 5.86625,0.0049 c 0.7425,0.0015 1.76,0.07963 2.41,0.235875 l 0.005,-0.05275 C 141.5915,75.4225 140.739,73.895125 140.92275,72.007 c 0.2925,-3.05075 2.6075,-4.729 6.4475,-4.726625 4.4075,0.0035 6.95375,2.566 6.54125,6.832125"
     inkscape:connector-curvature="0"
     id="path20"
     style="fill:#ffffff;fill-opacity:1;fill-rule:nonzero;stroke:none;stroke-width:0.125" /><path
     d="m 144.194,59.30675 c -0.14875,1.550375 0.89875,2.63775 2.64375,2.873625 l 0.525,-5.456625 c -1.78875,-0.05362 -3.0125,0.953125 -3.16875,2.583 z m 5.32,-5.2455 -0.78625,8.171375 c 2.88875,0.0805 4.2875,-1.15975 4.54125,-3.797375 0.12,-1.24025 -0.0125,-2.53425 -0.38625,-3.69875 l 2.16125,-0.358875 c 0.3825,1.34375 0.535,2.94775 0.38125,4.55075 -0.38125,3.956 -2.6425,6.152375 -7.125,6.1485 -3.8175,-0.0035 -6.49875,-2.203125 -6.1425,-5.926375 0.35375,-3.671875 2.9075,-5.19675 5.80375,-5.19425 0.41,0 1.0225,0.02825 1.5525,0.105"
     inkscape:connector-curvature="0"
     id="path22"
     style="fill:#ffffff;fill-opacity:1;fill-rule:nonzero;stroke:none;stroke-width:0.125" /><path
     d="m 146.304,44.301875 c -0.7325,2.558625 0.915,3.80125 4.73125,3.80475 l 5.175,0.0039 -0.2675,2.767125 -12.73,-0.01075 0.25375,-2.63825 c 0.715,0.0015 1.83625,0.07963 2.7925,0.26125 l 0.005,-0.05125 c -1.6625,-0.57125 -3.125,-1.86525 -2.63625,-4.27 l 2.67625,0.13325"
     inkscape:connector-curvature="0"
     id="path24"
     style="fill:#ffffff;fill-opacity:1;fill-rule:nonzero;stroke:none;stroke-width:0.125" /><path
     d="m 156.8165,41.804375 -18.69875,-0.01613 0.26625,-2.766125 18.69875,0.01613 -0.26625,2.766125"
     inkscape:connector-curvature="0"
     id="path26"
     style="fill:#ffffff;fill-opacity:1;fill-rule:nonzero;stroke:none;stroke-width:0.125" /><path
     d="m 157.4465,35.254 -12.73,-0.01112 0.26625,-2.766125 12.7325,0.01125 z m -14.85125,-1.408625 c -0.0925,0.983875 -0.91375,1.78325 -1.8875,1.78225 -0.9475,0 -1.6375,-0.80225 -1.545,-1.786125 0.0925,-0.957125 0.94,-1.756375 1.8875,-1.756375 0.94625,0.001 1.6375,0.80325 1.545,1.76025"
     inkscape:connector-curvature="0"
     id="path28"
     style="fill:#ffffff;fill-opacity:1;fill-rule:nonzero;stroke:none;stroke-width:0.125" /><path
     d="m 158.85025,20.678875 -8.17125,-0.0074 c -1.5875,-0.0014 -2.57875,0.438 -2.72,1.911625 -0.18625,1.941 1.69875,3.362875 4.2625,3.36525 l 6.12,0.0049 -0.265,2.767625 -12.73,-0.01125 0.25375,-2.63775 c 0.69125,0.001 1.7875,0.05375 2.49,0.183125 l 0.002,-0.02587 c -1.5675,-0.7505 -2.54375,-2.30325 -2.33375,-4.476 0.28125,-2.921375 2.2125,-3.82475 4.44125,-3.82225 l 8.91375,0.0072 -0.26375,2.74075"
     inkscape:connector-curvature="0"
     id="path30"
     style="fill:#ffffff;fill-opacity:1;fill-rule:nonzero;stroke:none;stroke-width:0.125" /></svg>